<?xml version="1.0" encoding="UTF-8" standalone="no"?>
<!DOCTYPE svg PUBLIC "-//W3C//DTD SVG 1.1//EN" "http://www.w3.org/Graphics/SVG/1.1/DTD/svg11.dtd">
<svg width="100%" height="100%" viewBox="0 0 1024 1024" version="1.1" xmlns="http://www.w3.org/2000/svg" xmlns:xlink="http://www.w3.org/1999/xlink" xml:space="preserve" xmlns:serif="http://www.serif.com/" style="fill-rule:evenodd;clip-rule:evenodd;stroke-linejoin:round;stroke-miterlimit:2;">
    <g transform="matrix(1,0,0,1,-4.84172,-3504.25)">
        <g id="Icon-purple" serif:id="Icon purple" transform="matrix(2.19961,0,0,1.04123,-2569.48,3504.25)">
            <rect x="1170.35" y="-0" width="465.536" height="983.456" style="fill:none;"/>
            <g transform="matrix(0.583073,0,0,1.23176,1104.9,-142.82)">
                <g transform="matrix(1,0,0,1,497.188,187.125)">
                    <path d="M0,0C1.708,-0.021 1.708,-0.021 3.45,-0.042C9.939,-0.006 19.419,2.139 22.813,3.375C24.104,3.845 24.673,6.303 23.813,7.375C22.626,8.853 19.082,11.174 15.691,12.242C14.68,12.567 13.669,12.893 12.627,13.228C11.017,13.734 11.017,13.734 9.375,14.25C7.168,14.967 4.963,15.687 2.758,16.41C1.765,16.731 0.773,17.052 -0.25,17.383C-5.365,19.11 -10.289,21.11 -15.188,23.375C-15.979,23.734 -16.77,24.093 -17.585,24.463C-37.257,33.422 -55.53,43.683 -72.532,57.073C-73.967,58.201 -75.418,59.31 -76.871,60.414C-93.518,73.261 -113.612,95.004 -124.09,107.645C-143.357,130.888 -164.179,181.506 -165.813,187.063C-168.983,197.848 -172.48,215.859 -173.775,221.988C-175.33,229.339 -175.583,236.886 -176.188,244.375C-176.751,244.42 -177.315,244.465 -177.896,244.511C-180.495,244.725 -183.091,244.956 -185.688,245.188C-186.574,245.258 -187.461,245.328 -188.375,245.4C-196.196,246.119 -206.021,247.409 -209.188,253.375C-212.354,259.341 -207.651,280.239 -207.375,281.199C-203.366,294.489 -196.19,310.428 -184.433,318.593C-180.186,321.606 -178.691,323.919 -177.699,329.078C-177.394,331.256 -177.12,333.439 -176.875,335.625C-176.589,337.797 -176.301,339.969 -176.012,342.141C-175.877,343.194 -175.742,344.248 -175.603,345.334C-174.592,352.731 -172.994,359.464 -170.188,366.375C-169.707,367.66 -169.23,368.946 -168.758,370.234C-164.74,381.072 -160.614,391.763 -155.313,402.051C-154.236,404.274 -146.704,417.745 -146.023,418.965C-145.628,419.661 -145.233,420.357 -144.826,421.074C-144.409,421.813 -143.992,422.551 -143.563,423.313C-139.253,430.79 -134.573,437.617 -129.188,444.375C-128.485,445.27 -127.782,446.164 -127.059,447.086C-123.328,451.832 -123.328,451.832 -119.32,456.34C-115.188,460.692 -115.188,460.692 -115.188,464.438C-115.854,466.396 -116.521,468.354 -117.188,470.313C-119.193,476.455 -119.346,482.624 -119.355,489.02C-119.359,489.829 -119.362,490.639 -119.366,491.474C-119.371,493.179 -119.373,494.884 -119.373,496.589C-119.375,499.17 -119.393,501.75 -119.412,504.33C-119.937,521.408 -118.608,533.186 -111.188,539.375C-103.767,545.564 -87.153,541.618 -74.89,541.464C-71.965,541.429 -69.04,541.409 -66.115,541.392C-57.813,541.344 -49.511,541.272 -41.21,541.183C-36.093,541.129 -30.976,541.095 -25.858,541.073C-23.931,541.061 -22.003,541.041 -20.076,541.013C-8.316,540.843 145.426,543.996 148.125,543.813C149.231,543.736 150.337,543.66 151.477,543.582C155.012,543.392 158.547,543.293 162.086,543.199C163.22,543.166 164.354,543.132 165.522,543.098C167.797,543.034 170.072,542.982 172.347,542.943C181.162,542.695 190.122,541.624 197.285,536.012C200.821,532.223 203.339,527.108 204.223,522.008C204.709,519.281 205.221,517.668 206.813,515.375C211.194,512.605 215.824,510.57 220.542,508.445C232.261,502.922 242.83,495.559 252.813,487.375C253.787,486.604 254.762,485.833 255.766,485.039C263.11,479.069 269.85,472.544 276.563,465.875C277.438,465.009 278.313,464.143 279.215,463.251C285.169,457.268 290.587,451.001 295.813,444.375C296.393,443.643 296.974,442.911 297.573,442.156C307.786,429.178 316.928,415.67 325.503,401.564C329.177,395.579 329.761,394.407 331.813,393.375C333.696,392.428 337.553,393.283 337.813,395.375C338.256,398.95 334.588,413.651 334.473,414.824C333.888,419.459 332.681,423.75 331.25,428.188C330.862,429.406 330.862,429.406 330.466,430.649C327.698,439.096 324.272,447.244 320.688,455.372C319.927,457.113 319.199,458.868 318.477,460.625C308.365,484.213 294.643,506.249 278.813,526.375C278.296,527.036 277.779,527.697 277.247,528.378C270.197,537.356 262.755,545.839 254.891,554.109C252.572,556.55 250.35,559.043 248.188,561.625C243.532,567.013 238.141,571.671 232.813,576.375C232.315,576.817 231.818,577.259 231.305,577.715C212.016,594.771 190.687,608.946 167.875,620.813C166.762,621.392 165.649,621.971 164.502,622.568C157.402,626.201 150.204,629.388 142.813,632.375C140.854,633.208 138.896,634.041 136.938,634.875C125.496,639.618 114.143,643.279 102.063,646C101.411,646.149 100.759,646.298 100.088,646.452C89.716,648.825 79.351,650.905 68.813,652.375C68.147,652.471 67.481,652.567 66.795,652.667C35.133,657.207 1.39,657.395 -30.188,652.375C-31.446,652.176 -32.704,651.978 -34,651.773C-52.819,648.74 -71.09,644.44 -89.188,638.375C-90.54,637.924 -90.54,637.924 -91.919,637.463C-120.947,627.556 -148.644,612.692 -173.188,594.375C-174.188,593.649 -175.188,592.924 -176.219,592.176C-199.371,575.207 -220.549,554.946 -237.895,532.07C-239.185,530.379 -240.493,528.703 -241.809,527.031C-257.188,507.42 -273.296,476.283 -277.813,467.75C-280.821,462.566 -282.578,456.966 -284.511,451.313C-285.697,447.916 -286.976,444.553 -288.25,441.188C-288.967,439.29 -289.684,437.393 -290.392,435.493C-290.954,433.997 -291.529,432.506 -292.114,431.019C-295.254,422.815 -297.316,414.396 -299.375,405.875C-299.907,403.697 -300.441,401.519 -300.975,399.342C-301.454,397.388 -303.148,390.37 -304.188,387.375C-310.151,350.791 -311.63,308.7 -304.684,272.297C-304.156,269.19 -303.816,266.093 -303.488,262.959C-302.85,256.87 -298.778,241.003 -298.438,238.625C-297.452,232.756 -295.665,227.204 -293.813,221.563C-293.52,220.655 -278.779,185.2 -275.563,178.813C-275.129,177.95 -274.695,177.088 -274.248,176.2C-264.453,156.968 -252.593,139.263 -239.188,122.375C-238.46,121.453 -237.733,120.532 -236.984,119.582C-231.931,113.284 -226.555,107.346 -221.043,101.453C-218.614,98.852 -216.267,96.191 -213.938,93.5C-210.984,90.16 -207.881,87.225 -204.473,84.355C-202.248,82.428 -200.131,80.411 -198.009,78.372C-184.79,65.781 -169.634,55.068 -154.188,45.375C-153.245,44.783 -153.245,44.783 -152.283,44.179C-128.253,29.253 -103.034,18.284 -75.875,10.563C-75.213,10.373 -74.551,10.184 -73.869,9.989C-49.796,3.154 -25.017,0.165 0,0Z" style="fill:rgb(168,85,247);fill-rule:nonzero;"/>
                </g>
                <g transform="matrix(1,0,0,1,651.693,442.251)">
                    <path d="M0,0C1.154,0.001 2.308,0.001 3.496,0.002C4.138,-0.001 4.78,-0.003 5.441,-0.006C7.602,-0.011 9.763,-0.003 11.924,0.006C13.469,0.005 15.015,0.003 16.561,0C20.77,-0.005 24.979,0.003 29.188,0.013C33.599,0.022 38.009,0.02 42.419,0.02C49.838,0.021 57.257,0.029 64.676,0.043C73.228,0.059 81.78,0.064 90.332,0.063C99.455,0.063 108.577,0.07 117.699,0.079C120.315,0.081 122.931,0.082 125.548,0.082C129.684,0.083 133.819,0.089 137.955,0.099C139.464,0.102 140.973,0.103 142.482,0.103C160.521,0.098 160.521,0.098 169.307,1.249C170.307,2.249 170.307,2.249 170.62,5.249C170.44,14.059 164.431,21.534 159.307,28.249C158.784,28.94 158.26,29.631 157.721,30.343C150.25,39.526 108.783,61.958 102.354,63.475C98.401,64.479 94.597,65.808 90.745,67.14C85.641,68.786 80.463,70.153 75.273,71.498C70.876,72.594 45.125,79.696 43.022,79.87C40.106,80.277 37.316,80.978 34.469,81.716C32.31,82.248 30.151,82.692 27.967,83.108C11.166,86.329 -3.131,90.536 -16.693,101.249C-17.428,101.79 -18.162,102.332 -18.92,102.89C-26.396,108.787 -32.577,117.722 -36.693,126.249C-56.434,126.623 -76.174,126.905 -95.917,127.078C-105.086,127.16 -114.252,127.272 -123.419,127.456C-131.413,127.616 -139.406,127.719 -147.402,127.754C-151.633,127.775 -155.86,127.824 -160.089,127.941C-187.908,128.681 -187.908,128.681 -194.373,122.736C-197.144,119.46 -199.113,116 -200.838,112.083C-204.123,105.033 -211.195,99.987 -217.119,95.292C-219.122,93.702 -221.037,92.075 -222.943,90.374C-226.039,87.981 -229.07,86.698 -232.693,85.249C-235.369,84.077 -235.369,84.077 -237.693,82.249C-238.314,79.289 -238.314,79.289 -238.308,75.622C-238.314,74.953 -238.319,74.285 -238.325,73.596C-238.337,71.386 -238.313,69.178 -238.287,66.968C-238.285,65.432 -238.285,63.897 -238.287,62.361C-238.285,59.143 -238.266,55.925 -238.235,52.707C-238.195,48.581 -238.191,44.456 -238.198,40.329C-238.201,37.159 -238.189,33.988 -238.172,30.817C-238.165,29.296 -238.162,27.774 -238.163,26.253C-238.161,24.127 -238.14,22.002 -238.113,19.876C-238.104,18.666 -238.096,17.456 -238.087,16.209C-237.646,12.894 -237.257,12.244 -234.693,10.249C-231.621,9.948 -228.75,9.833 -225.676,9.85C-224.743,9.844 -223.809,9.837 -222.847,9.83C-219.706,9.811 -216.564,9.814 -213.423,9.817C-211.176,9.808 -208.929,9.797 -206.683,9.786C-200.571,9.758 -194.46,9.749 -188.349,9.743C-181.967,9.733 -175.585,9.707 -169.202,9.683C-158.486,9.644 -147.771,9.616 -137.055,9.595C-126.016,9.574 -114.978,9.547 -103.94,9.511C-103.26,9.509 -102.58,9.507 -101.879,9.505C-98.466,9.494 -95.054,9.482 -91.641,9.471C-63.325,9.378 -35.009,9.307 -6.693,9.249C-6.404,8.135 -6.115,7.021 -5.818,5.874C-4.113,0.38 -4.113,0.38 0,0Z" style="fill:rgb(168,85,247);fill-rule:nonzero;"/>
                </g>
                <g transform="matrix(1,0,0,1,469,586.5)">
                    <path d="M0,0L138,0C138.33,5.28 138.66,10.56 139,16C141.939,35.128 150.828,51.518 166.188,63.438C167.449,64.305 168.72,65.16 170,66C170.845,66.621 170.845,66.621 171.707,67.254C181.879,74.323 194.579,77.435 206.574,79.75C211.419,81.518 213.678,84.355 216,89C216.1,91.802 216.141,94.573 216.125,97.375C216.122,98.183 216.118,98.992 216.115,99.825C215.95,119.154 215.95,119.154 213,123C208.556,124.013 204.242,124.137 199.697,124.161C198.64,124.169 198.64,124.169 197.561,124.176C195.248,124.191 192.934,124.198 190.621,124.203C189.005,124.209 187.389,124.215 185.773,124.22C182.393,124.231 179.013,124.237 175.633,124.24C171.307,124.246 166.98,124.27 162.654,124.298C159.319,124.317 155.985,124.322 152.65,124.324C151.055,124.327 149.46,124.335 147.865,124.348C145.634,124.365 143.404,124.363 141.174,124.356C139.906,124.36 138.638,124.364 137.332,124.367C133.735,123.971 131.947,123.023 129,121C121.198,118.688 112.971,117.614 104.938,116.375C103.753,116.19 103.753,116.19 102.545,116.002C74.844,111.909 30.637,108.408 5.226,122.543C1.611,124.176 -0.804,124.374 -4.752,124.372C-5.722,124.378 -5.722,124.378 -6.711,124.383C-8.83,124.391 -10.948,124.378 -13.066,124.363C-14.548,124.363 -16.03,124.363 -17.511,124.365C-20.609,124.365 -23.706,124.354 -26.803,124.336C-30.767,124.313 -34.73,124.313 -38.693,124.32C-41.75,124.323 -44.806,124.316 -47.863,124.307C-49.324,124.303 -50.785,124.302 -52.247,124.303C-54.29,124.304 -56.334,124.291 -58.377,124.275C-59.538,124.27 -60.699,124.265 -61.896,124.261C-64.99,124.001 -68.672,124.47 -70,122C-71.726,118.79 -72.188,109.334 -72.25,105C-72.284,103.779 -72.317,102.559 -72.352,101.301C-72.43,94.022 -72.018,89.146 -68,83C-65.103,80.529 -62.161,79.745 -58.563,78.75C-38.898,73.082 -23.103,59.873 -12,43C-11.559,42.401 -11.118,41.801 -10.664,41.184C-7.614,36.842 -5.639,32.06 -3.75,27.125C-3.491,26.497 -3.233,25.868 -2.967,25.22C0.1,16.738 -0.535,9.624 0,0Z" style="fill:rgb(168,85,247);fill-rule:nonzero;"/>
                </g>
                <g transform="matrix(1,0,0,1,661.5,208.25)">
                    <path d="M0,0C2.5,0.25 2.5,0.25 4.5,2.25C5.18,4.156 5.781,6.09 6.34,8.035C6.851,9.792 6.851,9.792 7.373,11.584C7.9,13.43 7.9,13.43 8.438,15.313C9.133,17.72 9.829,20.128 10.527,22.535C10.861,23.687 11.195,24.84 11.539,26.027C12.583,29.529 13.725,32.988 14.907,36.446C15.609,38.583 16.115,40.747 16.625,42.938C19.709,53.271 26.748,63.016 35.5,69.25C36.089,69.706 36.678,70.163 37.285,70.633C43.359,74.94 50.383,76.413 57.5,78.25C58.654,78.598 59.807,78.946 60.996,79.305C64.514,80.254 67.884,80.764 71.5,81.188C82.978,82.728 88.543,84.997 89.256,87.547C89.296,89.213 88.278,90.351 86.5,91.25C79.773,94.653 73.261,96.33 65.875,97.688C48.298,101.159 27.908,107.35 21.5,120.25C18.405,126.48 15.328,134.229 13.516,139.531C12.129,143.588 11.379,147.794 10.625,152.063C9.367,158.924 8.008,165.732 6.313,172.5C6.146,173.173 5.979,173.845 5.807,174.538C4.633,179.117 4.605,179.018 3.122,179.764C1.638,180.51 0.286,181.038 -3.093,179.014C-4.776,176.904 -5.144,175.414 -5.641,172.77C-5.821,171.864 -6.001,170.958 -6.187,170.025C-6.372,169.047 -6.558,168.07 -6.75,167.063C-9.122,155.345 -12.33,143.969 -15.823,132.542C-16.439,130.455 -19.913,124.889 -20.125,124.188C-23.62,116.721 -29.542,112.353 -36.5,108.25C-37.394,107.672 -37.394,107.672 -38.306,107.083C-44.988,103.001 -51.914,101.392 -59.5,99.688C-79.653,95.097 -79.653,95.097 -83.5,91.25C-83.875,88.875 -83.875,88.875 -83.5,86.25C-80.172,83.818 -77.494,82.886 -73.438,82.438C-67.443,81.562 -61.786,79.996 -56,78.25C-55.127,77.989 -54.254,77.727 -53.355,77.458C-48.799,76.103 -48.799,76.103 -44.479,74.16C-42.5,73.25 -38.5,71.93 -38.5,71.25C-37.203,70.361 -35.859,69.54 -34.5,68.75C-28.912,65.16 -25.36,60.582 -21.5,55.25C-20.778,54.322 -20.056,53.394 -19.313,52.438C-14.96,44.784 -12.319,36.293 -10.176,27.785C-9.5,25.25 -9.5,25.25 -8.512,22.48C-7.044,17.793 -6.386,13.023 -5.645,8.176C-4.38,0.438 -4.38,0.438 0,0Z" style="fill:rgb(168,85,247);fill-rule:nonzero;"/>
                </g>
                <g transform="matrix(1,0,0,1,594.547,666.852)">
                    <path d="M0,0C0.81,0.544 1.619,1.088 2.453,1.648C3.18,2.048 3.907,2.448 4.656,2.859C10.388,8.566 8.904,20.231 9.078,27.648C9.116,29.009 9.155,30.37 9.195,31.73C9.289,35.036 9.375,38.342 9.453,41.648C18.294,41.672 27.135,41.689 35.976,41.7C40.082,41.705 44.188,41.712 48.294,41.724C52.262,41.735 56.23,41.741 60.199,41.743C61.707,41.745 63.215,41.749 64.723,41.754C66.848,41.762 68.973,41.762 71.097,41.762C72.906,41.765 72.906,41.765 74.751,41.769C78.999,41.631 83.229,41.118 87.453,40.648C87.783,29.428 88.113,18.208 88.453,6.648C90.453,8.648 90.453,8.648 90.684,12.359C90.681,13.914 90.666,15.469 90.641,17.023C90.633,17.832 90.625,18.64 90.617,19.473C90.343,38.88 90.343,38.88 87.453,42.648C83.01,43.661 78.695,43.785 74.15,43.81C73.093,43.817 73.093,43.817 72.014,43.825C69.701,43.839 67.388,43.846 65.074,43.852C63.458,43.857 61.842,43.863 60.226,43.869C56.846,43.879 53.466,43.885 50.086,43.889C45.76,43.894 41.433,43.918 37.107,43.947C33.772,43.965 30.438,43.97 27.103,43.972C25.508,43.975 23.913,43.983 22.318,43.996C20.087,44.013 17.857,44.011 15.627,44.005C14.359,44.009 13.091,44.012 11.785,44.016C8.188,43.619 6.4,42.671 3.453,40.648C-4.349,38.337 -12.576,37.263 -20.609,36.023C-21.399,35.9 -22.189,35.777 -23.002,35.65C-54.535,30.991 -92.583,30.663 -122.547,42.648C-122.547,35.058 -123.333,25.839 -122.547,19.648C-121.92,14.718 -120.552,8.903 -117.828,5.504C-115.488,3.679 -113.106,2.15 -110.547,0.648C-109.744,0.116 -108.941,-0.416 -108.113,-0.965C-97.67,-7.699 -71.857,-11.212 -69.645,-11.866C-47.687,-16.95 -19.053,-11.762 0,0Z" style="fill:rgb(168,85,247);fill-rule:nonzero;"/>
                </g>
                <g transform="matrix(1,0,0,1,314.144,451.323)">
                    <path d="M0,0C0.854,-0.007 1.707,-0.013 2.587,-0.02C5.424,-0.04 8.261,-0.051 11.098,-0.061C12.064,-0.065 13.031,-0.069 14.026,-0.074C19.139,-0.095 24.251,-0.109 29.364,-0.118C34.656,-0.129 39.948,-0.164 45.24,-0.203C49.299,-0.229 53.359,-0.238 57.418,-0.241C59.37,-0.246 61.321,-0.258 63.272,-0.276C65.999,-0.301 68.726,-0.3 71.453,-0.293C72.264,-0.306 73.074,-0.319 73.909,-0.332C79.296,-0.281 79.296,-0.281 81.86,1.817C83.132,4.831 83.216,7.14 83.197,10.414C83.196,11.675 83.196,12.936 83.196,14.236C83.181,15.607 83.165,16.978 83.149,18.349C83.143,19.756 83.139,21.162 83.136,22.569C83.125,26.265 83.095,29.96 83.062,33.656C83.031,37.43 83.018,41.204 83.002,44.978C82.97,52.378 82.919,59.777 82.856,67.177C79.88,66.804 79.88,66.804 76.905,66.431C75.202,66.22 73.498,66.018 71.793,65.818C52.302,63.226 32.084,55.761 16.856,43.177C16.217,42.687 15.577,42.197 14.918,41.693C6.501,35.004 -3.134,19.93 -7.144,13.177C-9.215,9.69 -9.524,5.482 -9.144,1.177C-7.1,-0.867 -2.81,0.009 0,0Z" style="fill:rgb(168,85,247);fill-rule:nonzero;"/>
                </g>
                <g transform="matrix(1,0,0,1,445.925,416.371)">
                    <path d="M0,0C1.911,-0.001 3.823,-0.003 5.734,-0.005C10.901,-0.01 16.068,-0.008 21.235,-0.005C26.652,-0.002 32.068,-0.005 37.485,-0.006C46.576,-0.008 55.667,-0.006 64.758,-0.001C75.263,0.004 85.767,0.003 96.271,-0.003C105.301,-0.007 114.332,-0.008 123.362,-0.005C128.751,-0.004 134.139,-0.004 139.528,-0.007C144.591,-0.01 149.655,-0.008 154.718,-0.002C156.575,-0.001 158.431,-0.001 160.287,-0.003C162.824,-0.006 165.361,-0.003 167.898,0.002C168.63,0 169.361,-0.002 170.115,-0.004C174.519,0.012 178.751,0.271 183.075,1.129C186.468,4.632 186.453,8.402 186.572,13.043C186.075,15.129 186.075,15.129 184.568,16.736C181.02,18.72 177.659,18.54 173.7,18.504C172.848,18.508 171.995,18.512 171.117,18.516C168.255,18.525 165.393,18.513 162.531,18.502C160.481,18.504 158.431,18.508 156.381,18.513C150.809,18.522 145.237,18.513 139.664,18.499C133.836,18.488 128.008,18.492 122.18,18.494C112.389,18.495 102.599,18.484 92.809,18.466C81.489,18.444 70.169,18.441 58.849,18.447C47.965,18.453 37.08,18.447 26.195,18.436C21.561,18.431 16.927,18.43 12.294,18.433C6.835,18.434 1.377,18.426 -4.081,18.41C-6.085,18.406 -8.088,18.405 -10.092,18.408C-12.826,18.411 -15.561,18.402 -18.296,18.39C-19.485,18.396 -19.485,18.396 -20.699,18.402C-25.152,18.366 -28.785,17.784 -32.925,16.129C-33.535,6.295 -33.535,6.295 -31.55,2.504C-22.855,-2.05 -9.607,-0.011 0,0Z" style="fill:rgb(168,85,247);fill-rule:nonzero;"/>
                </g>
                <g transform="matrix(1,0,0,1,649,442.5)">
                    <path d="M0,0C20.507,-0.023 41.013,-0.041 61.52,-0.052C71.042,-0.057 80.565,-0.064 90.087,-0.075C98.392,-0.085 106.696,-0.092 115.001,-0.094C119.394,-0.095 123.786,-0.098 128.179,-0.106C132.324,-0.113 136.468,-0.115 140.612,-0.113C142.124,-0.113 143.636,-0.115 145.148,-0.119C163.154,-0.163 163.154,-0.163 172,1C173,2 173,2 173.125,5.375C173,9 173,9 172,12C149.531,15.579 127.312,17.684 104.568,18.455C103.166,18.503 103.166,18.503 101.736,18.552C99.985,18.609 98.234,18.662 96.482,18.709C92.528,18.831 88.873,19.133 85,20C69.52,21.429 53.745,21.124 38.213,21.176C36.17,21.184 34.127,21.194 32.085,21.208C7.155,21.363 7.155,21.363 1,19C-1.935,15.844 -2.389,13.783 -2.313,9.5C-2.309,8.562 -2.305,7.623 -2.301,6.656C-1.995,3.952 -1.267,2.369 0,0Z" style="fill:rgb(168,85,247);fill-rule:nonzero;"/>
                </g>
            </g>
        </g>
    </g>
</svg>
